<svg class="wit_logo svg_wit_logo" version="1.1" id="" xmlns="http://www.w3.org/2000/svg" xmlns:xlink="http://www.w3.org/1999/xlink" x="0px" y="0px" viewBox="0 0 414 292" style="display: inline-block;" xml:space="preserve">
                    
<style type="text/css">
    .st0{fill:none;stroke:#2eabcc;stroke-width:2;stroke-miterlimit:10;}
    .st1{fill:#2eabcc;}
    .st2{stroke:#fff;stroke-miterlimit:10;}
    .st3{fill:none;stroke:#2eabcc;stroke-width:8;stroke-miterlimit:10;}
    .st4{fill:#2eabcc;stroke:#2eabcc;stroke-width:9;stroke-miterlimit:10;}
</style>
<!-- 
    <g id="_x5F_word_innotaviate_award">
        <path class="st0" d="M41,681.4c-0.4,0-0.7,0.2-0.8,0.5l-5.2,15.4l-4.5-11.3c-0.1-0.2-0.2-0.3-0.3-0.4c-0.1-0.1-0.3-0.1-0.5-0.1                                 c-0.3,0-0.6,0.2-0.8,0.5l-4.5,11.3L19,681.9c-0.1-0.2-0.2-0.3-0.3-0.4s-0.3-0.1-0.5-0.1c-0.2,0-0.4,0.1-0.6,0.2                                 c-0.2,0.2-0.3,0.4-0.3,0.6c0,0.1,0,0.2,0.1,0.3l6,17.3c0,0.2,0.1,0.3,0.3,0.4s0.3,0.1,0.4,0.1c0.4,0,0.6-0.2,0.8-0.5l4.7-11.5                                 l4.7,11.5c0.1,0.3,0.4,0.5,0.8,0.5c0.2,0,0.3,0,0.4-0.1c0.1-0.1,0.2-0.2,0.3-0.4l6-17.3l0.1-0.3c0-0.3-0.1-0.5-0.2-0.6                                 C41.4,681.5,41.2,681.4,41,681.4z"></path>
        <path class="st0" d="M50.4,687.8c0.7,0,1.4,0.2,2.1,0.5c0.7,0.3,1.2,0.8,1.7,1.4c0.4,0.6,0.7,1.3,0.8,2.1v0.2h-9.2                                 c0.3-1.3,0.8-2.4,1.7-3.1C48.4,688.2,49.4,687.8,50.4,687.8z M56.7,692.7c0-1.3-0.3-2.5-0.9-3.5c-0.6-1-1.4-1.7-2.3-2.2                                 c-0.9-0.5-2-0.8-3-0.8c-1.1,0-2.1,0.3-3.1,0.9c-1,0.6-1.8,1.4-2.3,2.5s-0.9,2.4-0.9,3.9c0,1.4,0.3,2.6,0.9,3.7                                 c0.6,1.1,1.4,1.9,2.5,2.5s2.3,0.9,3.7,0.9c1,0,1.9-0.2,2.8-0.7s1.6-1,2.2-1.7c0.2-0.2,0.3-0.4,0.3-0.6c0-0.2-0.1-0.3-0.2-0.5                                 s-0.3-0.2-0.5-0.2s-0.4,0.1-0.6,0.2c-0.4,0.6-1,1-1.6,1.4c-0.7,0.4-1.5,0.5-2.3,0.5c-1.1,0-2.1-0.2-2.9-0.7c-0.8-0.5-1.5-1.2-1.9-2                                 c-0.4-0.9-0.7-1.8-0.7-2.9h10.2c0.2,0,0.4-0.1,0.6-0.2S56.7,692.9,56.7,692.7z"></path>
        <path class="st0" d="M67.1,699.1c-1,0-1.8-0.2-2.6-0.7c-0.7-0.5-1.3-1.2-1.8-2.1c-0.4-0.9-0.6-1.8-0.6-2.9s0.2-2.1,0.6-2.9                                 s1-1.5,1.8-2c0.8-0.5,1.6-0.7,2.6-0.7c0.9,0,1.8,0.2,2.5,0.7c0.7,0.5,1.3,1.2,1.8,2c0.4,0.9,0.6,1.8,0.6,2.9c0,1.1-0.2,2-0.6,2.9                                 c-0.4,0.9-1,1.6-1.8,2.1C68.9,698.9,68.1,699.1,67.1,699.1z M67.3,686.3c-1,0-2,0.3-2.9,0.8c-0.9,0.5-1.6,1.3-2.1,2.1v-8                                 c0-0.2-0.1-0.4-0.2-0.6c-0.2-0.2-0.3-0.2-0.6-0.2c-0.2,0-0.4,0.1-0.6,0.2s-0.2,0.3-0.2,0.6v18.4c0,0.2,0.1,0.4,0.2,0.6                                 s0.3,0.2,0.6,0.2c0.2,0,0.4-0.1,0.6-0.2c0.2-0.2,0.2-0.4,0.2-0.6v-1.8c0.5,0.8,1.2,1.5,2.1,2c0.9,0.5,1.8,0.8,2.8,0.8                                 c1.2,0,2.3-0.3,3.2-0.9c1-0.6,1.7-1.5,2.3-2.6c0.5-1.1,0.8-2.3,0.8-3.7c0-1.4-0.3-2.6-0.8-3.7c-0.5-1.1-1.3-1.9-2.3-2.6                                 C69.5,686.6,68.5,686.3,67.3,686.3z"></path>
        <path class="st0" d="M87.8,699.5v-17.2c0-0.2-0.1-0.4-0.2-0.6s-0.4-0.2-0.6-0.2c-0.3,0-0.5,0.1-0.6,0.2s-0.2,0.4-0.2,0.6v17.2                                 c0,0.3,0.1,0.5,0.2,0.6c0.2,0.2,0.4,0.2,0.6,0.2c0.2,0,0.4-0.1,0.6-0.2S87.8,699.8,87.8,699.5z"></path>
        <path class="st0" d="M99.6,686.3c-1,0-1.9,0.3-2.8,0.8c-0.9,0.5-1.6,1.2-2.1,1.9v-1.5c0-0.2-0.1-0.4-0.2-0.6                                 c-0.2-0.2-0.3-0.2-0.6-0.2c-0.2,0-0.4,0.1-0.6,0.2c-0.2,0.2-0.2,0.3-0.2,0.6v12.1c0,0.2,0.1,0.4,0.2,0.6c0.2,0.2,0.3,0.2,0.6,0.2                                 c0.2,0,0.4-0.1,0.6-0.2s0.2-0.3,0.2-0.6v-7.9c0-0.7,0.2-1.4,0.6-2c0.4-0.6,1-1.1,1.7-1.4s1.4-0.5,2.2-0.5c1.2,0,2.1,0.4,2.7,1.1                                 c0.6,0.7,0.9,1.7,0.9,2.8v7.9c0,0.2,0.1,0.4,0.2,0.6c0.2,0.2,0.3,0.2,0.6,0.2c0.2,0,0.4-0.1,0.6-0.2c0.2-0.2,0.2-0.3,0.2-0.6v-7.9                                 c0-1.6-0.4-2.9-1.2-3.9C102.5,686.7,101.3,686.3,99.6,686.3z"></path>
        <path class="st0" d="M115.9,686.3c-1,0-1.9,0.3-2.8,0.8c-0.9,0.5-1.6,1.2-2.1,1.9v-1.5c0-0.2-0.1-0.4-0.2-0.6                                 c-0.2-0.2-0.3-0.2-0.6-0.2s-0.4,0.1-0.6,0.2c-0.2,0.2-0.2,0.3-0.2,0.6v12.1c0,0.2,0.1,0.4,0.2,0.6c0.2,0.2,0.3,0.2,0.6,0.2                                 s0.4-0.1,0.6-0.2c0.2-0.2,0.2-0.3,0.2-0.6v-7.9c0-0.7,0.2-1.4,0.6-2c0.4-0.6,1-1.1,1.7-1.4c0.7-0.4,1.4-0.5,2.2-0.5                                 c1.2,0,2.1,0.4,2.7,1.1c0.6,0.7,0.9,1.7,0.9,2.8v7.9c0,0.2,0.1,0.4,0.2,0.6c0.2,0.2,0.3,0.2,0.6,0.2c0.2,0,0.4-0.1,0.6-0.2                                 s0.2-0.3,0.2-0.6v-7.9c0-1.6-0.4-2.9-1.2-3.9C118.8,686.7,117.6,686.3,115.9,686.3z"></path>
        <path class="st0" d="M136.8,693.5c0,1.1-0.2,2.1-0.7,2.9c-0.5,0.9-1.1,1.5-1.9,2c-0.8,0.5-1.7,0.7-2.7,0.7s-1.9-0.2-2.6-0.7                                 c-0.8-0.5-1.4-1.2-1.9-2c-0.5-0.9-0.7-1.8-0.7-2.9c0-1.1,0.2-2.1,0.7-2.9c0.5-0.9,1.1-1.5,1.9-2c0.8-0.5,1.7-0.7,2.6-0.7                                 s1.9,0.2,2.7,0.7c0.8,0.5,1.4,1.2,1.9,2C136.6,691.4,136.8,692.4,136.8,693.5z M138.4,693.5c0-1.3-0.3-2.6-0.9-3.7                                 c-0.6-1.1-1.4-2-2.5-2.6c-1-0.6-2.2-0.9-3.5-0.9s-2.4,0.3-3.5,0.9c-1,0.6-1.9,1.5-2.5,2.6s-0.9,2.3-0.9,3.7c0,1.4,0.3,2.6,0.9,3.7                                 c0.6,1.1,1.4,2,2.5,2.6c1,0.6,2.2,0.9,3.5,0.9s2.4-0.3,3.5-0.9c1-0.6,1.9-1.5,2.5-2.6C138.1,696,138.4,694.8,138.4,693.5z"></path>
        <path class="st0" d="M152.7,686.3c-0.2,0-0.3,0-0.5,0.1c-0.1,0.1-0.2,0.2-0.3,0.4l-4.6,10.9l-4.6-10.9c-0.1-0.2-0.2-0.3-0.3-0.4                                 c-0.1-0.1-0.3-0.1-0.4-0.1c-0.3,0-0.5,0.1-0.6,0.2c-0.1,0.2-0.2,0.3-0.2,0.6c0,0.1,0,0.1,0,0.2c0,0.1,0,0.1,0,0.2l5.3,12.4                                 c0.1,0.2,0.2,0.3,0.3,0.4s0.3,0.1,0.5,0.1c0.1,0,0.3,0,0.4-0.1c0.1-0.1,0.2-0.2,0.3-0.4l5.3-12.4c0.1-0.1,0.1-0.3,0.1-0.5                                 c0-0.2-0.1-0.4-0.2-0.5C153.1,686.4,152.9,686.3,152.7,686.3z"></path>
        <path class="st0" d="M162.8,699.1c-1,0-1.8-0.2-2.6-0.7c-0.7-0.5-1.3-1.2-1.7-2.1s-0.6-1.8-0.6-2.9s0.2-2,0.6-2.9                                 c0.4-0.9,1-1.5,1.8-2s1.6-0.7,2.5-0.7c0.9,0,1.8,0.2,2.5,0.7c0.7,0.5,1.3,1.2,1.8,2c0.4,0.9,0.6,1.8,0.6,2.9c0,1.1-0.2,2.1-0.6,2.9                                 c-0.4,0.9-1,1.6-1.8,2.1C164.6,698.9,163.7,699.1,162.8,699.1z M168.4,686.6c-0.2,0-0.4,0.1-0.6,0.2c-0.2,0.2-0.2,0.4-0.2,0.6v1.7                                 c-0.5-0.8-1.1-1.5-2-2.1c-0.9-0.5-1.9-0.8-3-0.8c-1.2,0-2.2,0.3-3.2,0.9c-1,0.6-1.7,1.5-2.3,2.6c-0.6,1.1-0.8,2.3-0.8,3.7                                 c0,1.4,0.3,2.6,0.8,3.7s1.3,2,2.3,2.6c1,0.6,2,0.9,3.3,0.9c1.1,0,2-0.3,2.9-0.8c0.9-0.6,1.6-1.2,2-2.1v1.8c0,0.2,0.1,0.4,0.2,0.6                                 c0.2,0.2,0.3,0.2,0.6,0.2c0.2,0,0.4-0.1,0.6-0.2s0.2-0.3,0.2-0.6v-12.2c0-0.2-0.1-0.4-0.2-0.6S168.6,686.6,168.4,686.6z"></path>
        <path class="st0" d="M179.5,688.1c0.2,0,0.4-0.1,0.5-0.2c0.1-0.1,0.2-0.3,0.2-0.5c0-0.2-0.1-0.4-0.2-0.5s-0.3-0.2-0.5-0.2h-2.7v-3                                 c0-0.2-0.1-0.4-0.2-0.6c-0.2-0.2-0.3-0.2-0.6-0.2s-0.4,0.1-0.6,0.2c-0.2,0.2-0.2,0.3-0.2,0.6v3h-2c-0.2,0-0.4,0.1-0.6,0.2                                 c-0.2,0.1-0.2,0.3-0.2,0.5c0,0.2,0.1,0.4,0.2,0.5c0.2,0.1,0.3,0.2,0.6,0.2h2v9.1c0,1,0.2,1.7,0.5,2.2c0.4,0.5,0.7,0.7,1.1,0.8                                 c0.4,0.1,0.8,0.1,1.3,0.1c0.4,0,0.7-0.1,1-0.3c0.3-0.2,0.4-0.4,0.4-0.6c0-0.2-0.1-0.3-0.2-0.5s-0.3-0.2-0.4-0.2                                 c-0.1,0-0.2,0-0.4,0.1s-0.3,0.1-0.4,0.1c-0.4,0-0.7-0.1-1-0.4s-0.4-0.7-0.4-1.4v-9H179.5z"></path>
        <path class="st0" d="M184.7,684.5c0.4,0,0.6-0.1,0.8-0.3c0.2-0.2,0.3-0.4,0.3-0.7v-0.3c0-0.7-0.4-1-1.1-1c-0.4,0-0.6,0.1-0.9,0.3                                 c-0.2,0.2-0.3,0.4-0.3,0.7v0.3c0,0.3,0.1,0.6,0.3,0.7C184.1,684.4,184.3,684.5,184.7,684.5z M185.5,699.6v-12.4                                 c0-0.2-0.1-0.4-0.2-0.6c-0.2-0.2-0.3-0.2-0.6-0.2c-0.2,0-0.4,0.1-0.6,0.2c-0.2,0.2-0.2,0.3-0.2,0.6v12.4c0,0.2,0.1,0.4,0.2,0.6                                 s0.3,0.2,0.6,0.2c0.2,0,0.4-0.1,0.6-0.2C185.4,700,185.5,699.8,185.5,699.6z"></path>
        <path class="st0" d="M200.8,686.3c-0.2,0-0.3,0-0.5,0.1c-0.1,0.1-0.2,0.2-0.3,0.4l-4.6,10.9l-4.6-10.9c-0.1-0.2-0.2-0.3-0.3-0.4                                 c-0.1-0.1-0.3-0.1-0.4-0.1c-0.3,0-0.5,0.1-0.6,0.2c-0.1,0.2-0.2,0.3-0.2,0.6c0,0.1,0,0.1,0,0.2c0,0.1,0,0.1,0,0.2l5.3,12.4                                 c0.1,0.2,0.2,0.3,0.3,0.4c0.1,0.1,0.3,0.1,0.5,0.1c0.1,0,0.3,0,0.4-0.1c0.1-0.1,0.2-0.2,0.3-0.4l5.3-12.4c0.1-0.1,0.1-0.3,0.1-0.5                                 c0-0.2-0.1-0.4-0.2-0.5C201.2,686.4,201,686.3,200.8,686.3z"></path>
        <path class="st0" d="M210.6,687.8c0.7,0,1.4,0.2,2.1,0.5s1.2,0.8,1.7,1.4c0.4,0.6,0.7,1.3,0.8,2.1v0.2H206c0.3-1.3,0.8-2.4,1.7-3.1                                 C208.6,688.2,209.6,687.8,210.6,687.8z M216.9,692.7c0-1.3-0.3-2.5-0.9-3.5s-1.4-1.7-2.3-2.2s-2-0.8-3-0.8c-1.1,0-2.1,0.3-3.1,0.9                                 c-1,0.6-1.8,1.4-2.3,2.5c-0.6,1.1-0.9,2.4-0.9,3.9c0,1.4,0.3,2.6,0.9,3.7c0.6,1.1,1.4,1.9,2.5,2.5s2.3,0.9,3.7,0.9                                 c1,0,1.9-0.2,2.8-0.7s1.6-1,2.2-1.7c0.2-0.2,0.3-0.4,0.3-0.6c0-0.2-0.1-0.3-0.2-0.5c-0.1-0.1-0.3-0.2-0.5-0.2s-0.4,0.1-0.6,0.2                                 c-0.4,0.6-1,1-1.6,1.4s-1.5,0.5-2.3,0.5c-1.1,0-2.1-0.2-2.9-0.7c-0.8-0.5-1.4-1.2-1.9-2c-0.4-0.9-0.7-1.8-0.7-2.9h10.2                                 c0.2,0,0.4-0.1,0.6-0.2S216.9,692.9,216.9,692.7z"></path>
        <path class="st0" d="M241.4,681.5h-12.9c-0.2,0-0.4,0.1-0.6,0.2c-0.2,0.1-0.2,0.3-0.2,0.5c0,0.2,0.1,0.4,0.2,0.6                                 c0.2,0.1,0.3,0.2,0.6,0.2h5.6v16.6c0,0.2,0.1,0.4,0.2,0.6c0.2,0.2,0.4,0.2,0.6,0.2c0.2,0,0.4-0.1,0.6-0.2s0.2-0.3,0.2-0.6V683h5.6                                 c0.2,0,0.4-0.1,0.6-0.2s0.2-0.3,0.2-0.6c0-0.2-0.1-0.4-0.2-0.6S241.6,681.5,241.4,681.5z"></path>
        <path class="st0" d="M248.8,699.1c-1,0-1.8-0.2-2.6-0.7c-0.7-0.5-1.3-1.2-1.7-2.1s-0.6-1.8-0.6-2.9s0.2-2,0.6-2.9                                 c0.4-0.9,1-1.5,1.8-2c0.7-0.5,1.6-0.7,2.5-0.7c0.9,0,1.8,0.2,2.5,0.7c0.7,0.5,1.3,1.2,1.8,2c0.4,0.9,0.6,1.8,0.6,2.9                                 c0,1.1-0.2,2.1-0.6,2.9c-0.4,0.9-1,1.6-1.8,2.1C250.6,698.9,249.8,699.1,248.8,699.1z M254.4,686.6c-0.2,0-0.4,0.1-0.6,0.2                                 s-0.2,0.4-0.2,0.6v1.7c-0.4-0.8-1.1-1.5-2-2.1c-0.9-0.5-1.9-0.8-3-0.8c-1.2,0-2.2,0.3-3.2,0.9c-1,0.6-1.7,1.5-2.3,2.6                                 c-0.6,1.1-0.8,2.3-0.8,3.7c0,1.4,0.3,2.6,0.8,3.7s1.3,2,2.3,2.6c1,0.6,2,0.9,3.3,0.9c1.1,0,2-0.3,2.9-0.8c0.9-0.6,1.6-1.2,2-2.1                                 v1.8c0,0.2,0.1,0.4,0.2,0.6s0.3,0.2,0.6,0.2c0.2,0,0.4-0.1,0.6-0.2s0.2-0.3,0.2-0.6v-12.2c0-0.2-0.1-0.4-0.2-0.6                                 S254.7,686.6,254.4,686.6z"></path>
        <path class="st0" d="M261.9,699.6v-18.4c0-0.2-0.1-0.4-0.2-0.6c-0.2-0.2-0.3-0.2-0.6-0.2s-0.4,0.1-0.6,0.2                                 c-0.2,0.2-0.2,0.3-0.2,0.6v18.4c0,0.2,0.1,0.4,0.2,0.6c0.2,0.2,0.3,0.2,0.6,0.2s0.4-0.1,0.6-0.2C261.9,700,261.9,699.8,261.9,699.6                                 z"></path>
        <path class="st0" d="M272.2,687.8c0.7,0,1.4,0.2,2.1,0.5s1.2,0.8,1.7,1.4c0.4,0.6,0.7,1.3,0.8,2.1v0.2h-9.2                                 c0.3-1.3,0.8-2.4,1.7-3.1C270.2,688.2,271.1,687.8,272.2,687.8z M278.4,692.7c0-1.3-0.3-2.5-0.9-3.5c-0.6-1-1.4-1.7-2.3-2.2                                 c-0.9-0.5-2-0.8-3-0.8c-1.1,0-2.1,0.3-3.1,0.9c-1,0.6-1.8,1.4-2.3,2.5s-0.9,2.4-0.9,3.9c0,1.4,0.3,2.6,0.9,3.7                                 c0.6,1.1,1.4,1.9,2.5,2.5c1.1,0.6,2.3,0.9,3.7,0.9c1,0,1.9-0.2,2.8-0.7s1.6-1,2.2-1.7c0.2-0.2,0.3-0.4,0.3-0.6                                 c0-0.2-0.1-0.3-0.2-0.5s-0.3-0.2-0.5-0.2c-0.2,0-0.4,0.1-0.6,0.2c-0.4,0.6-1,1-1.6,1.4c-0.7,0.4-1.5,0.5-2.3,0.5                                 c-1.1,0-2.1-0.2-2.9-0.7c-0.8-0.5-1.4-1.2-1.9-2c-0.4-0.9-0.7-1.8-0.7-2.9h10.2c0.2,0,0.4-0.1,0.6-0.2S278.4,692.9,278.4,692.7z"></path>
        <path class="st0" d="M289,686.3c-1,0-1.9,0.3-2.8,0.8c-0.9,0.5-1.6,1.2-2.1,1.9v-1.5c0-0.2-0.1-0.4-0.2-0.6                                 c-0.2-0.2-0.3-0.2-0.6-0.2c-0.2,0-0.4,0.1-0.6,0.2c-0.2,0.2-0.2,0.3-0.2,0.6v12.1c0,0.2,0.1,0.4,0.2,0.6c0.2,0.2,0.3,0.2,0.6,0.2                                 c0.2,0,0.4-0.1,0.6-0.2c0.2-0.2,0.2-0.3,0.2-0.6v-7.9c0-0.7,0.2-1.4,0.7-2c0.4-0.6,1-1.1,1.7-1.4c0.7-0.4,1.4-0.5,2.2-0.5                                 c1.2,0,2.1,0.4,2.7,1.1c0.6,0.7,0.9,1.7,0.9,2.8v7.9c0,0.2,0.1,0.4,0.2,0.6c0.2,0.2,0.3,0.2,0.6,0.2c0.2,0,0.4-0.1,0.6-0.2                                 s0.2-0.3,0.2-0.6v-7.9c0-1.6-0.4-2.9-1.2-3.9S290.6,686.3,289,686.3z"></path>
        <path class="st0" d="M304.1,688.1c0.2,0,0.4-0.1,0.5-0.2s0.2-0.3,0.2-0.5c0-0.2-0.1-0.4-0.2-0.5s-0.3-0.2-0.5-0.2h-2.7v-3                                 c0-0.2-0.1-0.4-0.2-0.6c-0.2-0.2-0.3-0.2-0.6-0.2c-0.2,0-0.4,0.1-0.6,0.2c-0.2,0.2-0.2,0.3-0.2,0.6v3h-2c-0.2,0-0.4,0.1-0.6,0.2                                 c-0.2,0.1-0.2,0.3-0.2,0.5c0,0.2,0.1,0.4,0.2,0.5c0.2,0.1,0.3,0.2,0.6,0.2h2v9.1c0,1,0.2,1.7,0.5,2.2c0.4,0.5,0.7,0.7,1.1,0.8                                 c0.4,0.1,0.8,0.1,1.3,0.1c0.4,0,0.7-0.1,1-0.3c0.3-0.2,0.4-0.4,0.4-0.6c0-0.2-0.1-0.3-0.2-0.5s-0.3-0.2-0.4-0.2                                 c-0.1,0-0.2,0-0.4,0.1c-0.2,0-0.3,0.1-0.4,0.1c-0.4,0-0.7-0.1-1-0.4s-0.4-0.7-0.4-1.4v-9H304.1z"></path>
        <path class="st0" d="M323.1,684.1l3.8,9.2h-7.5L323.1,684.1z M331.1,699.3l-7.1-17.4c-0.1-0.2-0.2-0.3-0.3-0.4                                 c-0.1-0.1-0.3-0.1-0.5-0.1c-0.4,0-0.7,0.2-0.8,0.5l-7.1,17.4c0,0.1,0,0.1,0,0.2v0.1c0,0.2,0.1,0.4,0.2,0.5c0.1,0.1,0.3,0.2,0.6,0.2                                 c0.3,0,0.6-0.2,0.7-0.5l2-4.9h8.8l2,4.9c0.1,0.2,0.2,0.3,0.3,0.4s0.3,0.1,0.5,0.1c0.2,0,0.4-0.1,0.6-0.2c0.2-0.1,0.2-0.3,0.2-0.6                                 C331.2,699.5,331.2,699.4,331.1,699.3z"></path>
        <path class="st0" d="M350.9,686.3c-0.4,0-0.6,0.2-0.8,0.5l-3.5,10.7l-3.4-8c-0.1-0.3-0.4-0.5-0.8-0.5c-0.4,0-0.6,0.2-0.8,0.5                                 l-3.2,8.1l-3.6-10.8c-0.1-0.2-0.1-0.3-0.3-0.4c-0.1-0.1-0.3-0.1-0.4-0.1c-0.2,0-0.4,0.1-0.6,0.2c-0.2,0.2-0.2,0.3-0.2,0.6                                 c0,0.1,0,0.2,0.1,0.4l4.3,12.4c0.1,0.2,0.2,0.3,0.3,0.4c0.2,0.1,0.3,0.1,0.5,0.1c0.1,0,0.3,0,0.4-0.1c0.1-0.1,0.2-0.2,0.3-0.4                                 l3.2-8.3l3.5,8.3c0.1,0.2,0.2,0.3,0.3,0.4c0.1,0.1,0.3,0.1,0.4,0.1c0.2,0,0.3,0,0.5-0.1c0.1-0.1,0.3-0.2,0.3-0.4l4.2-12.4                                 c0.1-0.2,0.1-0.3,0.1-0.4c0-0.3-0.1-0.4-0.2-0.6S351.1,686.3,350.9,686.3z"></path>
        <path class="st0" d="M361.2,699.1c-1,0-1.8-0.2-2.6-0.7c-0.7-0.5-1.3-1.2-1.7-2.1s-0.6-1.8-0.6-2.9s0.2-2,0.6-2.9                                 c0.4-0.9,1-1.5,1.8-2c0.7-0.5,1.6-0.7,2.5-0.7s1.8,0.2,2.5,0.7c0.7,0.5,1.3,1.2,1.8,2c0.4,0.9,0.6,1.8,0.6,2.9                                 c0,1.1-0.2,2.1-0.6,2.9s-1,1.6-1.8,2.1C363,698.9,362.1,699.1,361.2,699.1z M366.8,686.6c-0.2,0-0.4,0.1-0.6,0.2                                 c-0.2,0.2-0.2,0.4-0.2,0.6v1.7c-0.5-0.8-1.1-1.5-2-2.1c-0.9-0.5-1.9-0.8-3-0.8c-1.2,0-2.2,0.3-3.2,0.9c-1,0.6-1.7,1.5-2.3,2.6                                 c-0.6,1.1-0.8,2.3-0.8,3.7c0,1.4,0.3,2.6,0.8,3.7s1.3,2,2.3,2.6c1,0.6,2,0.9,3.3,0.9c1.1,0,2-0.3,2.9-0.8s1.6-1.2,2-2.1v1.8                                 c0,0.2,0.1,0.4,0.2,0.6c0.2,0.2,0.3,0.2,0.6,0.2c0.2,0,0.4-0.1,0.6-0.2s0.2-0.3,0.2-0.6v-12.2c0-0.2-0.1-0.4-0.2-0.6                                 S367,686.6,366.8,686.6z"></path>
        <path class="st0" d="M379,686.3c-1.1,0-2.1,0.4-3,1c-0.8,0.7-1.5,1.5-1.9,2.6v-2.4c0-0.2-0.1-0.4-0.2-0.6c-0.2-0.2-0.3-0.2-0.6-0.2                                 s-0.4,0.1-0.6,0.2c-0.2,0.2-0.2,0.3-0.2,0.6v12.1c0,0.2,0.1,0.4,0.2,0.6c0.2,0.2,0.3,0.2,0.6,0.2s0.4-0.1,0.6-0.2                                 c0.2-0.2,0.2-0.3,0.2-0.6v-6.7c0-0.8,0.2-1.6,0.6-2.5c0.4-0.8,1-1.5,1.6-2s1.3-0.8,2-0.8c0.2,0,0.5,0,0.7,0.1s0.4,0.1,0.5,0.1                                 c0.2,0,0.4-0.1,0.5-0.2c0.1-0.2,0.2-0.4,0.2-0.6c0-0.3-0.1-0.5-0.4-0.6C379.7,686.3,379.3,686.3,379,686.3z"></path>
        <path class="st0" d="M388.6,699.1c-0.9,0-1.8-0.2-2.5-0.7c-0.7-0.5-1.3-1.2-1.8-2c-0.4-0.9-0.6-1.8-0.6-2.9c0-1.1,0.2-2,0.6-2.9                                 c0.4-0.9,1-1.5,1.8-2c0.7-0.5,1.6-0.7,2.5-0.7s1.8,0.2,2.5,0.7c0.7,0.5,1.3,1.2,1.8,2c0.4,0.9,0.6,1.8,0.6,2.9                                 c0,1.1-0.2,2.1-0.6,2.9c-0.4,0.9-1,1.6-1.8,2C390.4,698.9,389.5,699.1,388.6,699.1z M394.2,680.4c-0.2,0-0.4,0.1-0.6,0.2                                 c-0.2,0.2-0.2,0.3-0.2,0.6v7.9c-0.5-0.8-1.2-1.5-2.1-2.1s-1.9-0.8-2.9-0.8c-1.2,0-2.2,0.3-3.2,0.9s-1.7,1.5-2.3,2.6                                 c-0.6,1.1-0.8,2.3-0.8,3.7c0,1.4,0.3,2.6,0.8,3.7c0.6,1.1,1.3,2,2.3,2.6s2,0.9,3.2,0.9c1.1,0,2.1-0.3,3-0.9s1.6-1.3,2-2.1v1.9                                 c0,0.2,0.1,0.4,0.2,0.6c0.2,0.2,0.3,0.2,0.6,0.2c0.2,0,0.4-0.1,0.6-0.2s0.2-0.3,0.2-0.6v-18.4c0-0.2-0.1-0.4-0.2-0.6                                 S394.5,680.4,394.2,680.4z"></path>
    </g> -->
    <!-- <g id="_x5F_2019_x29_word">
        <path class="st3" d="M128.5,621.2H93.2l21.2-23.8c5.3-5.8,9.1-10.9,11.4-15.4c2.3-4.4,3.5-8.7,3.5-12.9c0-6.8-2.2-12.3-6.6-16.6                                 c-4.4-4.2-10.4-6.3-18.2-6.3c-4.8,0-9.1,1.2-13.1,3.4c-4,2.3-7,5.5-9,9.7c-0.5,0.6-0.8,1.2-1.1,1.8c-0.3,0.6-0.5,1.2-0.5,1.6                                 c0,0.8,0.4,1.5,1.2,2.1c0.8,0.6,1.6,0.9,2.4,0.9c1.2,0,2.1-0.7,3-2.1c1.5-3.7,3.7-6.4,6.6-8.2c3-1.8,6.3-2.7,10.1-2.7                                 c5.6,0,10,1.5,13.1,4.5c3.1,3,4.7,7.1,4.7,12.3c0,3.5-1,7.1-3.1,10.8c-2.1,3.6-5.3,7.8-9.5,12.4L82.6,622c-0.6,0.8-0.9,1.6-0.9,2.4                                 c0,1.1,0.3,1.9,1,2.5s1.6,0.9,2.6,0.9h43.1c0.9,0,1.7-0.3,2.4-0.9c0.7-0.6,1-1.4,1-2.4c0-0.9-0.3-1.7-1-2.4                                 C130.2,621.5,129.4,621.2,128.5,621.2z"></path>
        <path class="st3" d="M182.7,621.8c-6.5,0-11.6-3.1-15.1-9.3c-3.6-6.2-5.3-14.5-5.3-25c0-10.6,1.8-19,5.3-25.1                                 c3.6-6.2,8.6-9.3,15.1-9.3c6.6,0,11.7,3.1,15.2,9.3c3.6,6.2,5.3,14.5,5.3,25.1c0,10.5-1.8,18.8-5.3,25                                 C194.4,618.8,189.3,621.8,182.7,621.8z M182.7,629c6.1,0,11.2-1.8,15.4-5.4c4.2-3.6,7.3-8.5,9.4-14.8c2.1-6.2,3.2-13.3,3.2-21.2                                 c0-8-1.1-15.1-3.2-21.3c-2.1-6.2-5.3-11.2-9.4-14.7c-4.2-3.6-9.3-5.3-15.4-5.3c-6.1,0-11.2,1.8-15.4,5.4c-4.2,3.6-7.3,8.5-9.4,14.7                                 c-2.1,6.2-3.1,13.3-3.1,21.3c0,7.9,1.1,15,3.2,21.2c2.1,6.3,5.2,11.2,9.4,14.8C171.5,627.2,176.6,629,182.7,629z"></path>
        <path class="st3" d="M253.1,547.3c-1.1-0.2-2,0-2.8,0.5l-19.4,11.7c-0.5,0.3-1,0.7-1.3,1.3c-0.3,0.5-0.5,1.1-0.5,1.6                                 c0,0.9,0.4,1.8,1.1,2.5c0.7,0.8,1.6,1.2,2.6,1.2c0.5,0,1.1-0.2,1.6-0.5l14.4-8.5v67.3c0,1,0.3,1.8,1,2.5c0.7,0.7,1.5,1,2.5,1                                 c1.1,0,2-0.3,2.7-1c0.7-0.7,1.1-1.5,1.1-2.5v-73.6c0-0.9-0.3-1.7-0.9-2.4C254.6,547.8,253.9,547.4,253.1,547.3z"></path>
        <path class="st3" d="M309.5,591.3c-3.8,0-7-0.9-9.7-2.7c-2.7-1.8-4.7-4.2-6.1-7.1c-1.4-3-2.1-6.2-2.1-9.6c0-3.7,0.8-7,2.4-9.9                                 s3.7-5.2,6.5-6.8c2.8-1.6,5.9-2.4,9.4-2.4c3.9,0,7.3,0.9,10.2,2.6c2.9,1.7,5.1,4,6.7,6.8c1.5,2.8,2.3,5.9,2.3,9.3                                 c0,3.6-0.8,6.9-2.4,9.9c-1.6,3-3.9,5.4-6.8,7.2S313.5,591.3,309.5,591.3z M309.9,546.1c-4.8,0-9.1,1.2-12.9,3.6                                 c-3.9,2.4-6.9,5.5-9.1,9.5c-2.2,3.9-3.3,8.2-3.3,12.7c0,4.5,1,8.8,3.1,12.8c2.1,4,4.9,7.2,8.5,9.7c3.6,2.4,7.7,3.6,12.2,3.6                                 c3.8,0,7.3-0.7,10.5-2.2c3.3-1.5,6-3.5,8.2-6c-1.9,7-5.5,13.4-10.9,19.4c-5.3,5.9-11.1,10.3-17.4,12.9c-1.8,0.6-2.8,1.7-2.8,3.3                                 c0,1,0.4,1.8,1.1,2.5c0.7,0.7,1.6,1,2.6,1c0.3,0,0.8-0.1,1.4-0.2c7.3-2.8,13.6-7.2,18.9-13.2c5.3-6.1,9.4-12.7,12.1-20                                 c2.7-7.3,4.1-14.1,4.1-20.6c0-5.1-1-9.8-2.9-14.1c-2-4.4-4.9-7.9-8.9-10.6S315.6,546.1,309.9,546.1z"></path>
    </g> -->
    <!-- <g id="_x5F_wit_x5F_word">
        <path class="st4" d="M209.4,332.4c-2.1,0-3.5,0.9-4.2,2.7l-44.3,128.7l-38-95.8c-0.3-0.8-0.8-1.5-1.6-2c-0.8-0.5-1.6-0.7-2.4-0.7                                 c-2,0-3.3,0.9-4,2.7l-37.8,95.5L32.5,335.1c-0.3-0.8-0.8-1.5-1.6-2c-0.8-0.5-1.6-0.7-2.4-0.7c-1.1,0-2.2,0.4-3.1,1.2                                 c-1,0.8-1.5,1.8-1.5,3l0.4,1.9l48.1,138.6c0.1,0.8,0.6,1.5,1.3,2c0.7,0.5,1.5,0.7,2.3,0.7c2.2,0,3.7-0.8,4.4-2.5l38.4-97l38.4,97                                 c0.6,1.7,2,2.5,4.2,2.5c0.7,0,1.4-0.2,2.2-0.7c0.8-0.5,1.3-1.2,1.6-2l48.1-138.6l0.4-2.1c0-1.3-0.4-2.2-1.3-2.9                                 C211.7,332.7,210.6,332.4,209.4,332.4z"></path>
        <path class="st4" d="M250.9,475.4V337.2c0-1.3-0.4-2.3-1.3-3.1c-0.8-0.8-1.9-1.3-3.1-1.3s-2.3,0.4-3.2,1.3s-1.3,1.9-1.3,3.1v138.2                                 c0,1.3,0.4,2.3,1.2,3.2c0.8,0.8,1.9,1.3,3.3,1.3c1.1,0,2.1-0.4,2.9-1.3S250.8,476.6,250.9,475.4z"></path>
        <path class="st4" d="M385.6,332.8H283.5c-1.1,0-2.1,0.4-2.9,1.2c-0.8,0.8-1.3,1.7-1.3,2.8c0,1.1,0.4,2.1,1.3,2.8                                 c0.8,0.8,1.8,1.2,2.9,1.2h46.8v134.8c0,1.1,0.4,2.1,1.2,2.9c0.8,0.8,1.8,1.3,3,1.3c1.1,0,2.1-0.4,2.9-1.3c0.8-0.8,1.3-1.8,1.3-2.9                                 V340.8h46.8c1.3,0,2.3-0.3,3-1c0.8-0.7,1.2-1.7,1.2-2.9c0-1.1-0.4-2.1-1.3-2.8C387.6,333.2,386.7,332.8,385.6,332.8z"></path>
    </g> -->
    <g id="_x5F_floating_x5F_man">
        <path style="fill: #02c1ee;" class="st1" d="M196.4,140.2c1-0.4,2.8-0.8,4.9-0.8c2.2,0.1,4,0.7,5,1.2c0.7-1,1.8-2.2,3.4-3.4c1.8-1.4,3.6-2.1,4.8-2.5                                 c-1.6,1.5-2.7,2.9-3.4,4c-1,1.6-1.6,3-2.1,4.1c-0.6,1.4-1,2.6-1.3,3.5c-1.2-1.5-2.5-2.4-3.3-3c-1.8-1.2-3.3-1.7-4.6-2.2                                 C198.5,140.7,197.3,140.4,196.4,140.2"></path>
        <path style="fill: #02c1ee;" class="st1" d="M207.3,136.2c0,1.1-0.9,1.9-1.9,1.9c-1.1,0-1.9-0.9-1.9-1.9c0-1.1,0.9-1.9,1.9-1.9                                 C206.4,134.2,207.3,135.1,207.3,136.2"></path>
        <path style="fill: #cf2026;" class="st1" d="M224.7,136.8c1,0.4,2.6,1.2,4.2,2.6c1.6,1.5,2.6,3.1,3,4.2c1.2-0.3,2.8-0.5,4.8-0.3c2.3,0.2,4.1,0.8,5.3,1.3                                 c-2.2,0.1-4,0.4-5.2,0.8c-1.8,0.5-3.1,1.2-4.3,1.7c-1.3,0.7-2.4,1.3-3.2,1.8c0-1.9-0.3-3.4-0.6-4.5c-0.6-2-1.4-3.5-2.1-4.6                                 C226,138.5,225.2,137.5,224.7,136.8"></path>
        <path style="fill: #cf2026;" class="st1" d="M235.6,140.8c-0.7,0.8-1.9,0.9-2.7,0.2c-0.8-0.7-0.9-1.9-0.2-2.7c0.7-0.8,1.9-0.9,2.7-0.2                                 C236.2,138.8,236.3,140,235.6,140.8"></path>
        <path style="fill: #3953a4;" class="st1" d="M178,164.4c0.3-1.1,0.8-2.8,2-4.5c1.3-1.8,2.8-3,3.7-3.6c-0.4-1.1-0.9-2.7-1-4.7c-0.2-2.3,0.2-4.2,0.5-5.4                                 c0.4,2.2,1,3.9,1.5,5c0.8,1.7,1.6,3,2.3,4c0.8,1.2,1.6,2.2,2.3,2.9c-1.9,0.2-3.4,0.8-4.3,1.2c-1.9,0.8-3.3,1.9-4.3,2.7                                 C179.5,162.9,178.6,163.8,178,164.4"></path>
        <path style="fill: #3953a4;" class="st1" d="M180.5,153.1c0.9,0.6,1.2,1.8,0.6,2.7c-0.6,0.9-1.8,1.2-2.7,0.6c-0.9-0.6-1.2-1.8-0.6-2.7                                 S179.6,152.5,180.5,153.1"></path>
        <path style="fill: #fee600;" class="st1" d="M172.7,141.7c0.6-0.9,1.7-2.3,3.5-3.6c1.8-1.3,3.6-1.8,4.7-2.1c0-1.2,0.1-2.9,0.7-4.8c0.6-2.2,1.6-3.8,2.4-4.9                                 c-0.4,2.2-0.4,4-0.3,5.3c0.1,1.9,0.5,3.3,0.8,4.5c0.4,1.5,0.8,2.7,1.1,3.6c-1.9-0.4-3.4-0.5-4.5-0.4c-2.1,0.1-3.7,0.6-5,1                                 C174.6,140.8,173.5,141.3,172.7,141.7"></path>
        <path style="fill: #fee600;" class="st1" d="M178.9,131.9c0.6,0.9,0.5,2.1-0.4,2.7s-2.1,0.5-2.7-0.4c-0.6-0.9-0.5-2.1,0.4-2.7                                 C177.1,130.9,178.3,131.1,178.9,131.9"></path>
        <path style="fill: #4d9b47;" class="st1" d="M188.9,119c1-0.5,2.7-1.1,4.8-1.2c2.2-0.1,4,0.4,5.1,0.7c0.6-1,1.6-2.4,3.1-3.7c1.7-1.5,3.4-2.4,4.6-2.9                                 c-1.5,1.6-2.5,3.2-3.1,4.3c-0.9,1.7-1.3,3.1-1.7,4.3c-0.5,1.4-0.8,2.7-0.9,3.6c-1.3-1.3-2.7-2.2-3.6-2.7c-1.8-1-3.5-1.4-4.8-1.8                                 C191.1,119.3,189.8,119.1,188.9,119"></path>
        <path style="fill: #4d9b47;" class="st1" d="M199.4,114c0.1,1.1-0.7,2-1.8,2.1c-1.1,0.1-2-0.7-2.1-1.8c-0.1-1.1,0.7-2,1.8-2.1                                 C198.4,112.2,199.3,113,199.4,114"></path>
        <path style="fill: #f26622;" class="st1" d="M218.8,112.3c1.1,0.1,2.8,0.4,4.8,1.4c2,1,3.3,2.4,4,3.2c1.1-0.6,2.6-1.2,4.6-1.6c2.2-0.4,4.2-0.3,5.4-0.2                                 c-2.1,0.6-3.7,1.5-4.8,2.1c-1.6,1-2.7,2-3.6,2.8c-1.1,1-2,1.9-2.6,2.6c-0.5-1.8-1.2-3.2-1.7-4.1c-1.1-1.8-2.3-3-3.2-3.9                                 C220.5,113.6,219.6,112.8,218.8,112.3"></path>
        <path style="fill: #f26622;" class="st1" d="M230.4,113.3c-0.5,1-1.6,1.4-2.6,0.9c-1-0.5-1.4-1.6-0.9-2.6c0.5-1,1.6-1.4,2.6-0.9                                 C230.4,111.2,230.9,112.4,230.4,113.3"></path>
        <path style="fill: #6b2c8d;" class="st1" d="M245.7,122.5c0.6,0.9,1.5,2.4,2,4.6c0.5,2.2,0.4,4,0.2,5.1c1.1,0.4,2.6,1.2,4.2,2.4c1.8,1.4,3,2.9,3.7,4                                 c-1.9-1.2-3.5-1.9-4.8-2.2c-1.8-0.6-3.3-0.8-4.5-0.9c-1.5-0.2-2.8-0.3-3.7-0.3c1.1-1.6,1.7-3,2-4c0.7-2,0.8-3.7,0.9-5                                 C245.8,124.6,245.8,123.4,245.7,122.5"></path>
        <path style="fill: #6b2c8d;" class="st1" d="M252.5,131.9c-1,0.3-2.1-0.3-2.4-1.4c-0.3-1,0.3-2.1,1.4-2.4c1-0.3,2.1,0.3,2.4,1.4                                 C254.1,130.6,253.5,131.6,252.5,131.9"></path>
    </g>
    <g id="_x5F_floating_x5F_path">
        <path style="fill:#89cc74;" class="st1" d="M196.2,102.6c2-1.8,3.9-2.8,5.3-3.4c1.2-0.5,2.4-1.1,4.1-1.3c3-0.4,5.3,0.6,5.8,0.8c0.1,0,0.1,0.1,0.2,0.1                                 c1.9,0.8,3.2,2,4.1,3.1c-0.3-0.6-2.5-4.8-6.9-5.6c-2.1-0.4-4.1,0.1-4.9,0.4c-1.5,0.5-2.5,1.1-3.3,1.6                                 C199.5,98.9,197.8,100.3,196.2,102.6"></path>
        <path style="fill:#3a52a4;" class="st1" d="M230.1,103.1c2.7,0.1,4.8,0.6,6.2,1.1c1.3,0.4,2.5,0.9,3.9,1.9c2.5,1.8,3.5,4,3.7,4.5c0,0.1,0.1,0.1,0.1,0.2                                 c0.8,1.9,1,3.6,0.9,5c0.2-0.6,1.4-5.3-1.2-8.8c-1.3-1.7-3.1-2.7-3.8-3c-1.4-0.7-2.6-0.9-3.5-1C235,102.7,232.8,102.5,230.1,103.1"></path>
        <path style="fill:#03c0f2;" class="st1" d="M254.4,123.7c2,1.7,3.3,3.5,4.1,4.7c0.7,1.1,1.4,2.2,1.8,3.9c0.8,2.9,0.2,5.3,0.1,5.8c0,0.1,0,0.1,0,0.2                                 c-0.6,2-1.5,3.5-2.4,4.5c0.5-0.4,4.4-3.2,4.6-7.6c0.1-2.1-0.7-4-1.1-4.8c-0.7-1.4-1.5-2.3-2.1-3                                 C258.4,126.4,256.8,124.9,254.4,123.7"></path>
        <path style="fill:#0f8140;" class="st1" d="M258.4,150.8c-0.9,2.5-2.1,4.3-3,5.5c-0.8,1.1-1.6,2.1-3,3.1c-2.5,1.8-4.9,2.1-5.4,2.1c-0.1,0-0.1,0-0.2,0                                 c-2.1,0.2-3.8-0.2-5.1-0.7c0.5,0.4,4.5,3,8.7,1.6c2-0.7,3.5-2.1,4.1-2.7c1.1-1.1,1.7-2.2,2.1-3                                 C257.2,155.6,258.1,153.6,258.4,150.8"></path>
        <path style="fill:#fbe600;" class="st1" d="M195.5,174.6c-2.6,0.6-4.8,0.6-6.2,0.5c-1.3-0.1-2.6-0.2-4.2-0.9c-2.8-1.1-4.4-3-4.7-3.4                                 c0-0.1-0.1-0.1-0.1-0.1c-1.3-1.6-1.9-3.3-2.2-4.6c0,0.7-0.1,5.4,3.4,8.2c1.7,1.3,3.6,1.8,4.5,2c1.5,0.3,2.7,0.2,3.6,0.1                                 C190.9,176.2,193,175.9,195.5,174.6"></path>
        <path style="fill:#f26622;" class="st1" d="M172.2,156.6c-2-1.8-3.2-3.6-3.9-4.9c-0.7-1.1-1.3-2.3-1.7-4c-0.7-3,0-5.3,0.1-5.8c0-0.1,0-0.1,0.1-0.2                                 c0.6-2,1.7-3.4,2.6-4.4c-0.6,0.4-4.5,3-4.9,7.4c-0.2,2.1,0.6,4,0.9,4.8c0.6,1.4,1.4,2.4,2,3.1C168.2,153.7,169.7,155.3,172.2,156.6                                 "></path>
        <path style="fill:#cb2026;" class="st1" d="M172.6,121.1c0.4-2.7,1.2-4.7,1.8-6c0.6-1.2,1.2-2.4,2.3-3.6c2.1-2.2,4.4-3,4.9-3.1c0.1,0,0.1,0,0.2-0.1                                 c2-0.6,3.7-0.5,5.1-0.3c-0.6-0.3-5-2.1-8.9,0.2c-1.8,1.1-3,2.7-3.5,3.4c-0.8,1.3-1.2,2.5-1.4,3.3                                 C172.7,116.2,172.3,118.3,172.6,121.1"></path>
    </g>
    <g id="_x5F_human">
        <path class="st1" id="blue_circle" d="M243.7,79.9c0.1,0,0.2,0,0.2,0c-7.3-1.8-13.5-2.7-18-3.1c-5.2-0.5-9-0.5-10.3-0.5c-4.2,0-7.4,0.3-8.9,0.5                                 c-1.9,0.2-4.8,0.5-8.5,1.3c-0.8,0.2-3.4,0.7-6.8,1.8c-1.4,0.4-4.2,1.3-7.5,2.7c-1.9,0.8-6.5,2.9-11.5,6.4                                 c-3.1,2.2-8.9,6.6-14.4,13.6c-9.3,12-11.9,24.1-12.5,27c-3.7,18.9,2.6,34,4.8,38.6c2.4,5.1,10.5,22,29.5,30.1                                 c4.2,1.8,14.3,5.4,26.7,3.9c1.4-0.2,8.5-1.1,16.7-4.8c5.4-2.4,9.4-5.3,10.3-5.9c0.9-0.7,3-2.3,7.2-5.7c5.2-4.2,5.6-4.5,7.2-5.7                                 c8.6-6.1,11.7-9.2,17.1-12.1c5.3-2.8,9.7-3.8,11-4.1c1.3-0.3,5.1-1.1,10-1c2.9,0,5.4,0.3,7.3,0.7c-0.4,6.7-1.7,16.5-5.9,27.6                                 c-1.6,4.2-4.4,11.5-10.2,19.5c-1.7,2.4-10,13.4-25.2,21.9c-4,2.3-20.8,11.3-44.1,10.7c-8.5-0.2-28.8-2-48.8-16.3                                 c-5.8-4.1-23.3-17.1-31.3-41.7c-4.1-12.7-3.8-24-3.6-29.2c0.4-13.1,3.5-22.7,4.4-25.6c3.1-9.3,7.1-15.9,9.2-19.2                                 c2.6-4.1,7.3-10.5,14.4-17c4-3.6,13.2-11.8,27.7-16.7c10.6-3.6,19.2-3.9,25.1-4.1C213.6,73.2,227.4,73.9,243.7,79.9"></path>
            
            <g id="_x5F_human_pauk_sa">
                    <path class="st1" d="M209.8,204.4c0.5-1.9,3-13.2-1-22c-1.6-3.5-3.8-6.3-3.8-6.3c-3.4-4.3-6.8-6.1-6.5-6.5c0.3-0.5,5.3,1.4,9.8,5                                         c3.5,2.8,5.7,5.8,7,8c2.1-6.7,5.2-11.5,7.4-14.4c2.9-3.8,5.8-6.4,8.6-8.9c3.9-3.5,7.5-6,10.3-7.8c-4.5,4.6-7.9,8.9-10.3,12.3                                         c-2.4,3.4-5.3,7.5-8,13.5c-2,4.5-3.6,8.1-3.8,13.3c-0.1,3.8,0.6,7,1.3,9c-1.5,0.8-3.1,1.5-4.8,2.3                                         C213.9,202.8,211.8,203.7,209.8,204.4"></path>
                    <path class="st1" d="M219.6,165.6c0,3.5-2.8,6.3-6.3,6.3c-3.5,0-6.3-2.8-6.3-6.3c0-3.5,2.8-6.3,6.3-6.3                                         C216.8,159.3,219.6,162.1,219.6,165.6"></path>
            </g>

    </g>
    <!-- <circle id="_x5F_black_x5F_circle" class="st2" cx="210.6" cy="156.8" r="91.8"/> -->
    <style>
        /* Floating Man */
        #_x5F_floating_x5F_man {
            opacity: 0;
            transform-origin: 50% 29%;
            animation: floating-man 0.8s ease-in-out 1s  forwards ;
        }
        
        #_x5F_floating_x5F_path {
            opacity: 0;
            transform-origin: 50% 29%;
            animation: floating-man 0.8s ease-in-out 1.3s  forwards ;
        }

        
        /* WIT WORD */
        /*#_x5F_wit_x5F_word {
            opacity: 0;
            transform-origin: 50% 50%;
             transform: translate(0%, 0%); 
            animation: wit-word 0.5s ease-in-out 1s forwards ;
        }*/
/*
        #_x5F_2019_x29_word {
            opacity: 0;
            transform-origin: 50% 50%;
             transform: translate(0%, 0%); 
            animation:  wit-word 0.5s ease-in-out 1s forwards ;
        }
*/
        /*#_x5F_word_innotaviate_award {
            opacity: 0;
            transform-origin: 50% 50%;
            animation:  wit-word 0.5s ease-in-out 1.2s forwards ;
        }*/

        #_x5F_human_pauk_sa {
            transform-origin: 50% 80%;
            transform: scale(0);
            animation: human-pauksa 0.75s ease-in-out 0.65s  forwards ;
        }

        #_x5F_black_x5F_circle {
            fill: #fff; 
            transform-origin: 51% 20%;
            /*animation: black-circle 1.6s linear 0s  forwards ;*/
            /* transform: scale(0.3) translate(35%, -15%); */
        }
        #blue_circle {
            animation: opa 2s linear 0s  forwards ;
        }
        @keyframes black-circle {
            0% {
                transform: scale(1) translate(0%, 0%);
            }
            100% {
                transform: scale(0) translate(-6%, -15%);
            }
           
        }

        @keyframes human-pauksa {
            0% {
                transform: scale(0);
            }
            100% {
                transform: scale(1);
            }
        }

        @keyframes floating-man {
            0% {
                opacity: 0;
                transform: scale(0.5) translate(0%, 0%);
            }
            100% {
                opacity: 1;
                transform: scale(1) translate(0%, 0%);
            }
        }

        @keyframes wit-word {
            0% {
                opacity: 0;
                transform: translate(0%, 6%);
            }
            100% {
                opacity: 1;
                transform: translate(0%, 0%);
            }
        }
        
        @keyframes opa {
            0% {
                opacity: 0;
            }
            100% {
                opacity: 1;
            }
        }
    </style>
</svg>